<svg width="171" height="38" viewBox="0 0 171 38" fill="none" xmlns="http://www.w3.org/2000/svg">
<g clip-path="url(#clip0_12_324)" filter="url(#filter0_d_12_324)">
<path d="M18.7098 0C20.0878 0 21.3599 0.107063 22.5259 0.424013C23.692 0.63602 24.646 1.06003 25.494 1.59005C26.342 2.12007 26.9781 2.86209 27.4021 3.81718C27.8261 4.77015 28.0381 5.93725 28.0381 7.20929C28.0381 8.69227 27.7201 9.96537 26.9781 10.9194C26.342 11.8724 25.282 12.7204 24.01 13.3564C25.812 13.8864 27.1901 14.8394 28.0381 16.1125C28.8861 17.3845 29.4161 18.9746 29.4161 20.7767C29.4161 22.2596 29.0981 23.5327 28.5681 24.5928C28.0381 25.6528 27.1901 26.6068 26.236 27.2429C25.282 27.8799 24.116 28.41 22.8439 28.7269C21.5719 29.0439 20.2998 29.2569 19.0278 29.2569H4.82336V0H18.7098ZM17.8618 11.8724C19.0278 11.8724 19.9818 11.5544 20.7239 11.0243C21.4659 10.4943 21.7839 9.5403 21.7839 8.37426C21.7839 7.73824 21.6779 7.10222 21.4659 6.67821C21.2539 6.2542 20.9359 5.93619 20.5119 5.61818C20.0878 5.40617 19.6638 5.19416 19.1338 5.08816C18.6038 4.98216 18.0738 4.98216 17.4378 4.98216H11.2896V11.8724H17.8618V11.8724ZM18.1798 24.3808C18.8158 24.3808 19.4518 24.2748 19.9818 24.1698C20.5119 24.0628 21.0419 23.8507 21.4659 23.5327C21.8899 23.2147 22.2079 22.8967 22.5259 22.3667C22.7379 21.8367 22.9499 21.1996 22.9499 20.4586C22.9499 18.9746 22.5259 17.9146 21.6779 17.1715C20.8299 16.5355 19.6638 16.2185 18.2858 16.2185H11.2896V24.3808H18.1798ZM38.6384 24.2748C39.4864 25.1228 40.7585 25.5468 42.4545 25.5468C43.6206 25.5468 44.6806 25.2288 45.5286 24.6988C46.3767 24.0617 46.9067 23.4267 47.1187 22.7897H52.3129C51.4648 25.3337 50.1928 27.1368 48.4967 28.3018C46.8007 29.3619 44.7866 29.9989 42.3485 29.9989C40.6525 29.9989 39.1684 29.6799 37.7904 29.1499C36.4124 28.6198 35.3523 27.8789 34.3983 26.8188C33.4443 25.8648 32.7022 24.6988 32.2782 23.3197C31.7482 21.9416 31.5362 20.4586 31.5362 18.7615C31.5362 17.1715 31.7482 15.6885 32.2782 14.3094C32.8082 12.9313 33.5503 11.7664 34.5043 10.7063C35.4583 9.75231 36.6244 8.90428 37.8964 8.37426C39.2744 7.84425 40.6525 7.52624 42.3485 7.52624C44.1506 7.52624 45.7406 7.84425 47.1187 8.58627C48.4967 9.32829 49.5568 10.1763 50.4048 11.4484C51.2528 12.6144 51.8888 13.9914 52.3129 15.4765C52.5249 16.9605 52.6309 18.4446 52.5249 20.1406H37.1544C37.1544 21.8367 37.7904 23.4267 38.6384 24.2748V24.2748ZM45.3166 13.1444C44.5746 12.4024 43.4086 11.9784 42.0305 11.9784C41.0765 11.9784 40.3345 12.1893 39.6985 12.5084C39.0624 12.8264 38.6384 13.2494 38.2144 13.6744C37.7904 14.0995 37.5784 14.6285 37.4724 15.1585C37.3664 15.6885 37.2604 16.1114 37.2604 16.5365H46.8007C46.5887 14.9465 46.0587 13.8864 45.3166 13.1444ZM60.7931 0V11.0243H60.8991C61.6411 9.75231 62.5952 8.90428 63.7612 8.37426C64.9272 7.84425 65.9873 7.52624 67.1533 7.52624C68.7434 7.52624 70.0154 7.73824 70.9694 8.16226C71.9235 8.58627 72.7715 9.22229 73.3015 9.96431C73.8315 10.7063 74.2555 11.6604 74.4675 12.7204C74.6795 13.7804 74.7856 14.9475 74.7856 16.3245V29.3629H68.9554V17.3845C68.9554 15.5825 68.6374 14.3104 68.1073 13.4624C67.5773 12.6144 66.6233 12.1904 65.2453 12.1904C63.6552 12.1904 62.4892 12.7204 61.8531 13.5695C61.1111 14.5225 60.7931 16.1125 60.7931 18.2326V29.3629H54.9629V0H60.7931ZM79.0257 11.2364C79.6617 10.2823 80.4037 9.6463 81.3578 9.00922C82.3118 8.47921 83.3718 8.05625 84.5379 7.84319C85.7039 7.63118 86.8689 7.52518 88.036 7.52518C89.096 7.52518 90.156 7.63118 91.3231 7.73718C92.3832 7.84319 93.4432 8.16014 94.2902 8.58521C95.2442 9.00816 95.8802 9.64524 96.5173 10.3873C97.0463 11.1303 97.3643 12.1904 97.3643 13.4624V24.5928C97.3643 25.5468 97.4703 26.5008 97.5763 27.3499C97.6833 28.1979 97.9992 28.94 98.3183 29.3629H92.3821C92.169 29.1509 92.063 28.7269 91.9581 28.41C91.8521 28.0909 91.8521 27.6679 91.8521 27.3499C90.8981 28.3029 89.838 28.94 88.566 29.3629C87.2939 29.7869 86.0219 29.8929 84.7499 29.8929C83.6898 29.8929 82.8418 29.7869 81.8878 29.47C81.0397 29.258 80.2977 28.8329 79.5557 28.3029C78.9197 27.7729 78.3897 27.1369 77.9657 26.2899C77.6476 25.4408 77.4356 24.5928 77.4356 23.4267C77.4356 22.2596 77.6476 21.1996 78.0717 20.4586C78.4957 19.7166 79.0257 19.0806 79.6617 18.5506C80.2977 18.1276 81.1458 17.7026 81.9938 17.4905C82.8418 17.2796 83.6898 17.0676 84.6439 16.9605L87.1879 16.6425C88.036 16.5365 88.778 16.4305 89.414 16.3245C90.05 16.1125 90.5801 15.9005 91.0041 15.5825C91.4281 15.2645 91.5341 14.8405 91.5341 14.2044C91.5341 13.5684 91.4281 13.0384 91.2161 12.7204C91.0041 12.4024 90.6861 12.0844 90.368 11.8724C90.049 11.6604 89.626 11.5544 89.202 11.4494C88.778 11.3424 88.248 11.3424 87.718 11.3424C86.5519 11.3424 85.7039 11.5544 85.0679 12.0844C84.4319 12.6144 84.0078 13.4624 83.9018 14.5225H78.0717C78.0717 13.2504 78.4957 12.0844 79.0257 11.2364V11.2364ZM90.579 19.5046C90.262 19.6106 89.838 19.7166 89.413 19.8226C88.9889 19.9297 88.5649 19.9297 88.0349 20.0346C87.612 20.1406 87.0819 20.1406 86.6569 20.2466L85.3848 20.5646C84.9608 20.6706 84.5368 20.8827 84.3248 21.0947C84.0068 21.3067 83.7948 21.6247 83.5828 21.9427C83.2658 22.3667 83.2658 22.7907 83.2658 23.3207C83.2658 23.8507 83.3718 24.2748 83.5838 24.5928C83.7958 24.9108 84.0078 25.2299 84.3259 25.4408C84.6439 25.6528 85.0679 25.7599 85.4919 25.8648C85.9159 25.9698 86.3389 25.9708 86.8689 25.9708C88.036 25.9708 88.8829 25.7599 89.519 25.4408C90.156 25.0178 90.579 24.5928 90.8981 24.0628C91.2161 23.5327 91.4281 23.0027 91.4281 22.4727C91.5341 21.9427 91.5341 21.5197 91.5341 21.2007V18.9746C91.2161 19.1866 90.8981 19.3997 90.579 19.5046ZM106.164 8.05625V11.0243H106.27C107.011 9.75231 107.966 8.90428 109.131 8.37426C110.298 7.84425 111.57 7.52624 112.735 7.52624C114.325 7.52624 115.597 7.73824 116.551 8.16226C117.611 8.58627 118.354 9.22229 118.884 9.96431C119.414 10.7063 119.837 11.6604 120.155 12.7204C120.367 13.7804 120.474 14.9475 120.474 16.3245V29.3629H114.644V17.3845C114.644 15.5825 114.325 14.3104 113.795 13.4624C113.265 12.6144 112.311 12.0844 110.827 12.0844C109.237 12.0844 108.07 12.7204 107.329 13.6744C106.587 14.6285 106.269 16.2185 106.269 18.3386V29.4689H100.438V8.05625H106.164ZM133.51 11.8724C132.557 11.8724 131.814 12.0844 131.179 12.5095C130.543 12.9324 130.013 13.4624 129.589 14.2055C129.165 14.8415 128.953 15.5835 128.74 16.4316C128.529 17.2807 128.529 18.0216 128.529 18.8707C128.529 19.6117 128.635 20.4608 128.74 21.2017C128.953 22.0508 129.164 22.6858 129.589 23.3218C130.013 23.9589 130.437 24.4889 131.073 24.9118C131.709 25.3359 132.45 25.5489 133.404 25.5489C134.783 25.5489 135.843 25.1249 136.69 24.3818C137.434 23.6409 137.964 22.5808 138.07 21.2017H143.688C143.265 24.0638 142.205 26.1839 140.401 27.669C138.6 29.152 136.267 29.8951 133.404 29.8951C131.814 29.8951 130.33 29.577 129.058 29.047C127.679 28.517 126.619 27.775 125.666 26.821C124.713 25.8669 123.969 24.7009 123.439 23.4289C122.909 22.0508 122.698 20.6717 122.698 19.0817C122.698 17.3856 122.909 15.9016 123.439 14.5235C123.969 13.1455 124.606 11.8734 125.559 10.8134C126.513 9.75337 127.679 9.01134 128.952 8.37532C130.329 7.84531 131.813 7.5273 133.509 7.5273C134.782 7.5273 135.948 7.7393 137.113 8.05731C138.278 8.37532 139.339 8.90534 140.187 9.5403C141.142 10.1774 141.884 11.0243 142.414 12.0844C142.944 13.0384 143.263 14.3104 143.368 15.6885H137.643C137.435 13.1444 136.055 11.8724 133.51 11.8724V11.8724ZM35.9883 2.01406H47.8607V4.87615H35.9883V2.01406ZM152.486 24.2748C153.335 25.1228 154.712 25.5468 156.302 25.5468C157.469 25.5468 158.529 25.2288 159.376 24.6988C160.225 24.0617 160.755 23.4267 160.966 22.7897H166.055C165.206 25.3337 163.935 27.1368 162.238 28.3018C160.541 29.3619 158.528 29.9989 156.09 29.9989C154.394 29.9989 152.91 29.6799 151.531 29.1499C150.226 28.6634 149.061 27.8628 148.14 26.8188C147.186 25.8648 146.444 24.6988 146.02 23.3197C145.49 21.9416 145.278 20.4586 145.278 18.7615C145.278 17.1715 145.49 15.6885 146.02 14.3094C146.53 12.9799 147.285 11.7578 148.246 10.7063C149.2 9.75231 150.366 8.90428 151.638 8.37426C153.016 7.84425 154.5 7.52624 156.09 7.52624C157.891 7.52624 159.481 7.84425 160.754 8.58627C162.131 9.32829 163.191 10.1763 164.04 11.4484C164.888 12.6144 165.524 13.9914 165.948 15.4765C166.371 16.9595 166.478 18.5495 166.371 20.2466H151.001C151.001 21.8367 151.638 23.4267 152.486 24.2748V24.2748ZM159.27 13.1444C158.528 12.4024 157.361 11.9784 155.984 11.9784C155.03 11.9784 154.287 12.1893 153.651 12.5084C153.015 12.8264 152.485 13.2494 152.168 13.6744C151.851 14.0995 151.531 14.6285 151.426 15.1585C151.321 15.6885 151.215 16.1114 151.215 16.5365H160.755C160.436 14.9465 159.906 13.8864 159.27 13.1444Z" fill="white" fill-opacity="0.5"/>
</g>
<defs>
<filter id="filter0_d_12_324" x="0.798584" y="0" width="169.638" height="38" filterUnits="userSpaceOnUse" color-interpolation-filters="sRGB">
<feFlood flood-opacity="0" result="BackgroundImageFix"/>
<feColorMatrix in="SourceAlpha" type="matrix" values="0 0 0 0 0 0 0 0 0 0 0 0 0 0 0 0 0 0 127 0" result="hardAlpha"/>
<feOffset dy="4"/>
<feGaussianBlur stdDeviation="2"/>
<feComposite in2="hardAlpha" operator="out"/>
<feColorMatrix type="matrix" values="0 0 0 0 0 0 0 0 0 0 0 0 0 0 0 0 0 0 0.25 0"/>
<feBlend mode="normal" in2="BackgroundImageFix" result="effect1_dropShadow_12_324"/>
<feBlend mode="normal" in="SourceGraphic" in2="effect1_dropShadow_12_324" result="shape"/>
</filter>
<clipPath id="clip0_12_324">
<rect width="161.638" height="30" fill="white" transform="translate(4.79858)"/>
</clipPath>
</defs>
</svg>
