<svg width="130" height="38" viewBox="0 0 130 38" fill="none" xmlns="http://www.w3.org/2000/svg">
<g clip-path="url(#clip0_12_316)" filter="url(#filter0_d_12_316)">
<path d="M41.2695 11.9814C42.6647 11.9814 43.7957 10.85 43.7957 9.45451C43.7957 8.0588 42.6647 6.92761 41.2695 6.92761C39.8743 6.92761 38.7433 8.0588 38.7433 9.45451C38.7433 10.85 39.8743 11.9814 41.2695 11.9814ZM124.641 20.615C124.257 20.3447 123.96 20.3 123.714 20.8247C119.471 30.0143 112.321 25.4286 113.031 25.8321C114.617 25.1067 118.788 21.7614 118.158 17.1424C117.775 14.3195 115.352 13.0674 112.78 13.5157C108.291 14.2983 106.64 19.1402 107.481 23.4269C107.628 24.1631 107.891 24.7702 108.153 25.365C103.08 29.4902 101.066 21.6721 100.837 20.7378C100.828 20.6878 104.754 17.4155 105.846 9.61761C106.991 1.44499 104.384 -0.043108 101.718 0.00332053C96.7843 0.0892729 95.4512 10.3967 97.2421 18.9871C97.0921 19.0262 96.394 19.4128 95.2724 19.4562C94.4652 16.9164 91.0164 14.6902 90.1138 15.5481C87.8547 17.694 90.6616 21.8895 92.6367 22.2186C91.4502 29.5259 84.0305 27.7162 85.4116 18.5612C87.8278 14.0743 89.6655 7.40261 89.3376 3.37499C89.2214 1.94903 88.1671 0.0385586 85.7828 0.133321C81.1969 0.314749 80.6983 10.625 81.2359 17.9426C81.2093 17.7624 80.954 18.8317 79.0747 19.3633C78.6302 16.8959 74.6574 14.4193 73.7221 15.61C71.9714 17.8386 75.0055 21.8121 76.4426 22.0893C75.2562 29.3964 67.8366 27.5867 69.2178 18.4317C71.634 13.945 73.4714 7.27332 73.1436 3.2457C73.0274 1.81951 71.9733 -0.0909652 69.5888 0.00355862C65.0028 0.185225 64.5043 10.4955 65.0419 17.8131C65.015 17.63 64.7538 18.7345 62.7978 19.2574C62.7324 16.0562 58.745 14.5883 57.7871 15.6097C56.08 17.4305 58.1781 21.1662 60.119 22.0893C58.9326 29.3964 51.5131 27.5867 52.8943 18.4317C55.3105 13.945 57.1481 7.27332 56.82 3.2457C56.704 1.81951 55.6497 -0.0909652 53.2652 0.00355862C48.6795 0.185225 48.3105 11.0138 48.8481 18.3312C47.3376 24.8028 42.2721 32.8848 42.9302 16.695C42.9952 15.5593 43.0662 15.1281 42.5 14.7028C42.0757 14.3724 41.1109 14.5314 40.5836 14.5445C39.9426 14.5702 39.7819 14.9452 39.6402 15.5121C39.3102 16.9759 39.2509 18.395 39.2038 20.3312C39.1728 21.2369 39.1002 21.6595 38.7514 22.8945C38.4031 24.1293 36.4157 26.3862 35.3276 26.0088C33.8181 25.4897 34.3133 21.2283 34.5962 18.3005C34.8319 15.9867 34.0771 14.9476 32.1433 14.5697C31.0112 14.3338 30.3233 14.37 29.1443 13.9983C28.0293 13.6469 27.7771 11.5378 25.399 12.2407C24.0983 12.6255 24.9345 15.3814 24.6219 17.424C23.085 27.4719 19.8871 27.7478 18.4036 22.8669C25.0852 6.50237 20.3364 0.0509396 17.5566 0.0509396C14.6614 0.0509396 11.3519 2.04523 12.7533 14.8052C12.0719 14.6064 11.8624 14.4993 11.1164 14.4993C6.8976 14.4993 4.02332 17.9097 4.02332 22.1169C4.02332 26.324 6.89784 29.7347 11.1166 29.7347C13.6071 29.7347 15.3557 28.6021 16.68 26.85C17.544 28.0874 18.5962 29.7538 20.5202 29.6788C26.2552 29.4555 27.9231 17.6914 28.12 17.0352C28.7331 17.1297 29.3131 17.3086 29.8793 17.4031C30.8226 17.5448 30.8912 17.9181 30.8697 18.8669C30.6197 26.8678 32.0962 29.6693 35.4452 29.6693C37.3112 29.6693 38.9743 27.8359 40.12 26.525C40.9757 28.2912 42.3393 29.6152 44.1686 29.669C48.6012 29.7793 50.2983 22.7143 50.1436 23.644C50.0221 24.3736 51.5816 29.6293 56.145 29.6483C61.7976 29.6721 62.8483 23.4559 62.9736 22.4147C62.9893 22.2076 62.9962 22.229 62.9736 22.4147L62.9693 22.4778C64.7638 22.144 65.6897 21.1819 65.6897 21.1819C65.6897 21.1819 67.1307 29.745 72.4683 29.6486C78.0112 29.5481 79.0564 23.929 79.1936 22.8333C79.2116 22.5733 79.2224 22.6038 79.1936 22.8333C79.1928 22.844 79.1921 22.8547 79.1914 22.8655C81.3231 22.09 81.8838 21.3117 81.8838 21.3117C81.8838 21.3117 83.029 29.7045 88.6624 29.7778C93.6824 29.8436 95.5428 24.7028 95.5538 22.5512C96.4005 22.5602 97.9666 22.0488 97.93 22.0197C97.93 22.0197 99.7688 29.3578 104.904 29.7347C107.315 29.9117 109.123 28.3781 110.154 27.6786C112.577 29.6407 120.645 32.1469 125.739 23.51C126.458 22.2705 124.912 20.8062 124.641 20.615ZM10.9131 26.8857C8.45165 26.8857 6.87332 24.6097 6.87332 22.1557C6.87332 19.7019 8.32212 17.4259 10.7836 17.4259C11.8912 17.4259 12.5074 17.5478 13.37 18.2981C13.5264 18.9145 13.9697 20.3364 14.1855 20.9821C14.4745 21.8462 14.8183 22.5817 15.165 23.3821C14.6697 25.4352 13.0462 26.8857 10.9131 26.8857ZM16.9112 18.3702C16.8088 18.2071 16.8302 18.3074 16.7157 18.1533C16.2645 16.9259 15.395 14.1864 15.2943 11.0747C15.1805 7.55475 15.7671 3.4288 17.4966 3.4288C18.6686 3.4288 19.914 11.7907 16.9109 18.3702H16.9112ZM51.5686 14.7026C51.2909 12.6138 51.2764 3.30189 53.5119 3.55832C54.7462 4.05832 52.7293 12.8452 51.5686 14.7026ZM67.8921 14.7026C67.6145 12.6138 67.6 3.30189 69.8355 3.55832C71.0697 4.05832 69.0528 12.8452 67.8921 14.7026ZM84.0862 14.8324C83.8083 12.7433 83.794 3.43142 86.0293 3.68784C87.2635 4.18784 85.2467 12.975 84.0862 14.8324ZM101.964 3.01332C104.008 2.80142 103.924 11.7267 99.8214 17.3614C99.2924 15.3247 98.4812 3.71261 101.964 3.01308V3.01332ZM110.555 22.2186C109.898 18.9026 111.595 16.7247 113.343 16.4859C113.954 16.3883 114.84 16.7843 115.017 17.5245C115.307 18.9195 114.975 20.9888 111.061 23.6143C111.067 23.6367 110.701 22.9571 110.555 22.2186H110.555Z" fill="white" fill-opacity="0.5"/>
</g>
<defs>
<filter id="filter0_d_12_316" x="0" y="0" width="129.951" height="38" filterUnits="userSpaceOnUse" color-interpolation-filters="sRGB">
<feFlood flood-opacity="0" result="BackgroundImageFix"/>
<feColorMatrix in="SourceAlpha" type="matrix" values="0 0 0 0 0 0 0 0 0 0 0 0 0 0 0 0 0 0 127 0" result="hardAlpha"/>
<feOffset dy="4"/>
<feGaussianBlur stdDeviation="2"/>
<feComposite in2="hardAlpha" operator="out"/>
<feColorMatrix type="matrix" values="0 0 0 0 0 0 0 0 0 0 0 0 0 0 0 0 0 0 0.25 0"/>
<feBlend mode="normal" in2="BackgroundImageFix" result="effect1_dropShadow_12_316"/>
<feBlend mode="normal" in="SourceGraphic" in2="effect1_dropShadow_12_316" result="shape"/>
</filter>
<clipPath id="clip0_12_316">
<rect width="121.951" height="30" fill="white" transform="translate(4)"/>
</clipPath>
</defs>
</svg>
