<svg width="132" height="38" viewBox="0 0 132 38" fill="none" xmlns="http://www.w3.org/2000/svg">
<g clip-path="url(#clip0_12_318)" filter="url(#filter0_d_12_318)">
<path d="M125.75 25.9059C125.213 25.911 124.701 26.1284 124.324 26.5104C123.948 26.8924 123.738 27.408 123.74 27.9444C123.743 28.4808 123.958 28.9944 124.338 29.3728C124.718 29.7512 125.233 29.9636 125.769 29.9636C126.306 29.9636 126.82 29.7512 127.201 29.3728C127.581 28.9944 127.796 28.4808 127.798 27.9444C127.801 27.408 127.591 26.8924 127.214 26.5104C126.838 26.1284 126.325 25.911 125.789 25.9059H125.75ZM125.75 29.7313C125.398 29.7371 125.052 29.6385 124.757 29.448C124.461 29.2574 124.228 28.9833 124.088 28.6606C123.948 28.3378 123.907 27.9807 123.97 27.6345C124.033 27.2883 124.197 26.9685 124.441 26.7156C124.686 26.4627 125 26.288 125.344 26.2136C125.688 26.1392 126.046 26.1685 126.374 26.2977C126.701 26.4269 126.982 26.6503 127.183 26.9396C127.383 27.2288 127.493 27.571 127.499 27.9228V27.9527C127.509 28.4142 127.335 28.8607 127.016 29.1941C126.696 29.5275 126.258 29.7204 125.796 29.7304H125.75L125.75 29.7313ZM117.962 25.3516H113.553V18.4474C113.553 16.8011 113.524 14.6817 111.26 14.6817C108.964 14.6817 108.613 16.4755 108.613 18.3276V25.3511H104.204V11.1534H108.436V13.0937H108.495C108.919 12.3695 109.531 11.7737 110.266 11.3698C111.002 10.966 111.833 10.7691 112.671 10.8002C117.14 10.8002 117.963 13.7393 117.963 17.5629L117.962 25.3516ZM99.2294 9.21266C98.7234 9.21275 98.2287 9.0628 97.808 8.78175C97.3872 8.50071 97.0592 8.1012 96.8655 7.63375C96.6718 7.16629 96.621 6.65189 96.7196 6.1556C96.8183 5.6593 97.0618 5.20339 97.4196 4.84553C97.7773 4.48766 98.2331 4.24392 98.7294 4.14511C99.2256 4.04631 99.7401 4.09688 100.208 4.29044C100.675 4.48399 101.075 4.81184 101.356 5.23251C101.637 5.65319 101.787 6.1478 101.787 6.65381C101.787 6.98978 101.721 7.32247 101.593 7.6329C101.464 7.94332 101.276 8.22539 101.038 8.463C100.801 8.70061 100.519 8.88911 100.208 9.01774C99.8981 9.14637 99.5654 9.2126 99.2294 9.21266ZM101.434 25.3516H97.0205V11.1534H101.434V25.3516ZM120.16 0.00178226H94.8051C94.2297 -0.00471195 93.6752 0.217529 93.2635 0.619668C92.8518 1.02181 92.6166 1.57094 92.6095 2.14641V27.606C92.6163 28.1817 92.8514 28.7312 93.2631 29.1338C93.6747 29.5363 94.2294 29.759 94.8051 29.7529H120.16C120.736 29.7601 121.293 29.5381 121.706 29.1355C122.119 28.733 122.356 28.1828 122.364 27.606V2.14457C122.356 1.56797 122.119 1.01821 121.706 0.616076C121.292 0.213947 120.736 -0.00765944 120.16 -5.46846e-05V0.00178226ZM80.6102 14.5802C78.4059 14.5802 77.0833 16.0521 77.0833 18.1967C77.0833 20.3413 78.4054 21.8145 80.6102 21.8145C82.815 21.8145 84.1403 20.345 84.1403 18.1967C84.1403 16.0484 82.8173 14.5802 80.6102 14.5802ZM88.199 25.3433H84.1403V23.4604H84.0802C83.571 24.1453 82.9105 24.7034 82.1503 25.0911C81.3901 25.4789 80.5506 25.6859 79.6972 25.696C75.4612 25.696 72.6709 22.6389 72.6709 18.3156C72.6709 14.3451 75.1402 10.6992 79.1994 10.6992C81.0239 10.6992 82.7282 11.1984 83.7279 12.5821H83.7858V4.39804H88.1986L88.199 25.3433ZM67.0104 16.5958C67.0188 16.2381 66.9546 15.8825 66.8215 15.5503C66.6884 15.2182 66.4893 14.9166 66.2363 14.6637C65.9832 14.4108 65.6814 14.2119 65.3492 14.0791C65.017 13.9462 64.6613 13.8822 64.3037 13.8909C63.5334 13.843 62.7751 14.0997 62.1923 14.6057C61.6095 15.1116 61.2489 15.8264 61.1882 16.5958H67.0104ZM70.7449 22.8873C70.0123 23.7757 69.0913 24.49 68.0486 24.9786C67.0058 25.4671 65.8675 25.7177 64.716 25.7121C60.3074 25.7121 56.7777 22.7693 56.7777 18.2123C56.7777 13.6553 60.3069 10.7139 64.716 10.7139C68.8368 10.7139 71.4209 13.653 71.4209 18.2123V19.5946H61.1882C61.3156 20.3785 61.722 21.09 62.3326 21.598C62.9432 22.1059 63.7167 22.3761 64.5108 22.3587C65.1383 22.3548 65.7548 22.1941 66.3044 21.891C66.8539 21.588 67.3189 21.1524 67.657 20.6237L70.7449 22.8873ZM26.9182 11.1497H31.1519V13.09H31.2121C31.635 12.3655 32.2467 11.7695 32.9819 11.3655C33.7171 10.9616 34.5482 10.7649 35.3865 10.7966C39.8572 10.7966 40.6801 13.738 40.6801 17.5593V25.3451H36.2715V18.4424C36.2715 16.7946 36.2412 14.6766 33.9753 14.6766C31.6837 14.6766 31.3301 16.4709 31.3301 18.3225V25.3433H26.9214L26.9182 11.1497ZM42.9157 4.39942H47.3243V16.9205L52.3208 11.1419H57.726L51.9397 17.7149L57.6043 25.352H52.0632L47.3831 18.334H47.3253V25.3511H42.9166L42.9157 4.39942ZM20.0651 11.1483H24.4737V25.3461H20.0651V11.1483ZM22.2694 4.08989C22.7752 4.08999 23.2696 4.24006 23.6901 4.52113C24.1106 4.80221 24.4384 5.20166 24.6319 5.66899C24.8254 6.13631 24.8759 6.65052 24.7772 7.1466C24.6785 7.64267 24.4349 8.09833 24.0772 8.45595C23.7195 8.81357 23.2638 9.05711 22.7677 9.15575C22.2716 9.25439 21.7574 9.20372 21.2901 9.01014C20.8228 8.81655 20.4234 8.48875 20.1424 8.06819C19.8614 7.64762 19.7115 7.15318 19.7115 6.64738C19.7115 6.31148 19.7776 5.97888 19.9062 5.66856C20.0347 5.35825 20.2232 5.07629 20.4607 4.8388C20.6982 4.60131 20.9802 4.41294 21.2905 4.28444C21.6009 4.15594 21.9335 4.08983 22.2694 4.08989ZM4.95117 4.40263H9.54031V21.1188H18.0362V25.3539H4.95117V4.40263ZM126.072 28.0634C126.147 28.0641 126.222 28.0493 126.292 28.02C126.361 27.9906 126.424 27.9472 126.476 27.8926C126.528 27.8379 126.568 27.7732 126.595 27.7023C126.621 27.6314 126.632 27.556 126.627 27.4806C126.627 27.0673 126.378 26.8698 125.866 26.8698H125.04V29.0337H125.351V28.0904H125.733L125.742 28.1019L126.334 29.0337H126.667L126.029 28.0693L126.072 28.0634ZM125.712 27.8466H125.352V27.115H125.809C126.045 27.115 126.314 27.1536 126.314 27.4627C126.314 27.8181 126.041 27.8466 125.71 27.8466" fill="white" fill-opacity="0.5"/>
</g>
<defs>
<filter id="filter0_d_12_318" x="0.951172" y="0" width="130.847" height="38" filterUnits="userSpaceOnUse" color-interpolation-filters="sRGB">
<feFlood flood-opacity="0" result="BackgroundImageFix"/>
<feColorMatrix in="SourceAlpha" type="matrix" values="0 0 0 0 0 0 0 0 0 0 0 0 0 0 0 0 0 0 127 0" result="hardAlpha"/>
<feOffset dy="4"/>
<feGaussianBlur stdDeviation="2"/>
<feComposite in2="hardAlpha" operator="out"/>
<feColorMatrix type="matrix" values="0 0 0 0 0 0 0 0 0 0 0 0 0 0 0 0 0 0 0.25 0"/>
<feBlend mode="normal" in2="BackgroundImageFix" result="effect1_dropShadow_12_318"/>
<feBlend mode="normal" in="SourceGraphic" in2="effect1_dropShadow_12_318" result="shape"/>
</filter>
<clipPath id="clip0_12_318">
<rect width="122.847" height="30" fill="white" transform="translate(4.95117)"/>
</clipPath>
</defs>
</svg>
