<svg width="161" height="38" viewBox="0 0 161 38" fill="none" xmlns="http://www.w3.org/2000/svg">
<g clip-path="url(#clip0_12_320)" filter="url(#filter0_d_12_320)">
<path d="M81.57 26.6515C81.57 27.1795 81.57 27.2995 81.926 27.6235L83.9198 29.5915V29.6755H75.0784V25.8955C74.1886 28.3868 71.8352 30.0342 69.2158 29.9995C64.6705 29.9995 61.3713 26.3995 61.3713 19.7756C61.3713 13.5718 64.9316 9.43183 69.9279 9.43183C72.1426 9.29086 74.2035 10.5806 75.0665 12.6478V4.30792C75.1322 3.92172 74.9759 3.53122 74.663 3.29994L72.7642 1.45197V1.36798L81.57 0.323994V26.6515ZM75.0784 25.4515V13.0078C74.4377 12.203 73.4654 11.7425 72.4438 11.7598C70.2958 11.7598 68.2189 13.7278 68.2189 19.5716C68.2189 25.0435 70.011 26.9755 72.2421 26.9755C73.3733 26.9521 74.4262 26.3864 75.0784 25.4515ZM87.4326 29.6755V12.8758C87.4891 12.5006 87.3554 12.1218 87.0765 11.8678L85.1184 9.82782V9.74382H93.9597V26.7835C93.9597 27.3115 93.9597 27.4315 94.3158 27.7555L96.262 29.6035V29.6875L87.4326 29.6755ZM87.1121 3.59994C87.1121 1.61175 88.7061 0 90.6724 0C92.6387 0 94.2327 1.61175 94.2327 3.59994C94.2327 5.58812 92.6387 7.19987 90.6724 7.19987C88.7061 7.19987 87.1121 5.58812 87.1121 3.59994ZM117.814 26.6155C117.814 27.1435 117.814 27.2995 118.17 27.6235L120.163 29.5915V29.6755H111.275V25.3675C110.465 28.0914 107.999 29.9676 105.186 29.9995C101.246 29.9995 99.134 27.0955 99.134 21.5996C99.134 18.9477 99.134 16.0437 99.2171 12.7798C99.2822 12.4144 99.1458 12.0421 98.861 11.8078L96.9029 9.82782V9.74382H105.673C105.673 9.86382 105.673 20.1716 105.673 20.6996C105.673 24.2996 106.195 26.6995 108.426 26.6995C109.625 26.6238 110.704 25.9425 111.298 24.8876V12.8878C111.355 12.5126 111.221 12.1338 110.942 11.8798L108.972 9.82782V9.74382H117.814V26.6155ZM147.91 29.6755C147.91 29.0275 148.028 20.7716 148.028 18.8757C148.028 15.2757 147.471 12.7918 144.967 12.7918C143.707 12.8311 142.54 13.4722 141.822 14.5197C142.073 15.6416 142.192 16.7895 142.178 17.9397C142.178 20.4356 142.095 23.6156 142.059 26.7955C141.994 27.1609 142.13 27.5332 142.415 27.7675L144.409 29.6155V29.6995H135.484C135.484 29.0995 135.603 20.7956 135.603 18.8997C135.603 15.2397 135.045 12.8158 132.577 12.8158C131.36 12.8599 130.25 13.5298 129.634 14.5917V26.8315C129.634 27.3595 129.634 27.4795 129.99 27.8035L131.936 29.6515V29.7355H123.107V12.9358C123.163 12.5606 123.029 12.1818 122.75 11.9278L120.792 9.82782V9.74382H129.634V14.0157C130.453 11.1953 133.066 9.30056 135.971 9.41983C138.914 9.41983 140.908 11.0758 141.75 14.2197C142.686 11.3202 145.38 9.37452 148.396 9.41983C152.336 9.41983 154.567 12.3598 154.567 17.9157C154.567 20.5676 154.484 23.5916 154.449 26.7715C154.38 27.1479 154.538 27.5298 154.852 27.7435L156.799 29.5915V29.6755H147.91ZM36.8411 27.0595L39.4638 29.5915V29.6755H26.1602V29.5915L28.8304 27.0595C29.1152 26.8252 29.2516 26.4529 29.1865 26.0875V9.89982C29.1865 9.21583 29.1865 8.29185 29.3051 7.49987L20.3333 29.9995H20.2264L10.9341 9.29983C10.7324 8.78384 10.673 8.74784 10.5425 8.39985V21.9716C10.4312 22.8799 10.5838 23.8014 10.9816 24.6236L14.7199 29.5915V29.6755H4.79858V29.5915L8.53687 24.6116C8.93171 23.7927 9.08419 22.876 8.97597 21.9716V6.97187C9.03676 6.23332 8.81598 5.49922 8.35886 4.91991L5.71239 1.45197V1.36798H15.2065L23.1577 18.8997L30.1596 1.36798H39.4519V1.45197L36.8411 4.39192C36.5282 4.6232 36.3719 5.0137 36.4376 5.3999V26.0875C36.3684 26.4639 36.5269 26.8458 36.8411 27.0595ZM47.2489 18.9477V19.0317C47.2489 24.1676 49.8717 26.2315 52.9454 26.2315C55.512 26.3201 57.8873 24.8649 58.9978 22.5236H59.0809C58.0128 27.5995 54.9035 29.9995 50.2514 29.9995C45.2314 29.9995 40.4963 26.9395 40.4963 19.8476C40.4963 12.3958 45.2433 9.41983 50.4888 9.41983C54.7136 9.41983 59.2115 11.4358 59.2115 17.9157C59.2115 18.0357 59.2115 18.4677 59.2115 18.9477H47.2489ZM47.2489 17.9157H53.0996C53.0996 17.3877 53.0996 17.0277 53.0996 16.8717C53.0996 11.5918 52.0197 10.1878 50.3938 10.1878C48.4238 10.1878 47.2252 12.2878 47.2252 17.9157H47.2489Z" fill="white" fill-opacity="0.5"/>
</g>
<defs>
<filter id="filter0_d_12_320" x="0.798584" y="0" width="160" height="38" filterUnits="userSpaceOnUse" color-interpolation-filters="sRGB">
<feFlood flood-opacity="0" result="BackgroundImageFix"/>
<feColorMatrix in="SourceAlpha" type="matrix" values="0 0 0 0 0 0 0 0 0 0 0 0 0 0 0 0 0 0 127 0" result="hardAlpha"/>
<feOffset dy="4"/>
<feGaussianBlur stdDeviation="2"/>
<feComposite in2="hardAlpha" operator="out"/>
<feColorMatrix type="matrix" values="0 0 0 0 0 0 0 0 0 0 0 0 0 0 0 0 0 0 0.25 0"/>
<feBlend mode="normal" in2="BackgroundImageFix" result="effect1_dropShadow_12_320"/>
<feBlend mode="normal" in="SourceGraphic" in2="effect1_dropShadow_12_320" result="shape"/>
</filter>
<clipPath id="clip0_12_320">
<rect width="152" height="30" fill="white" transform="translate(4.79858)"/>
</clipPath>
</defs>
</svg>
